<svg xmlns="http://www.w3.org/2000/svg" width="635.771" height="665.331" viewBox="0 0 635.771 665.331">
  <g id="buytini-logo-2" transform="translate(-194.139 865.931)">
    <path id="face-base" d="M493.5-863.5c-4.4,1.3-27.8,9.1-52,17.3s-69.2,23.5-100,34c-73.7,25-94.8,32.4-101.8,35.6A77.938,77.938,0,0,0,196.8-728l-2.3,7.5L194.2-567c-.2,105.3.1,155.7.8,160.4A85.953,85.953,0,0,0,205-378c8.7,14.8,17.4,22.7,42.5,38.5,17.9,11.3,53.5,34.4,103.5,67,21.7,14.2,50.9,33.1,64.7,42.2,37.5,24.4,50.1,29.7,70.8,29.7,11.8,0,21.8-1.8,34-6.1,9.6-3.5,257.8-127.1,265.3-132.2a105.3,105.3,0,0,0,24.5-23.6,85.054,85.054,0,0,0,14.1-27c5.8-17.1,5.7-14.1,5.4-175.7l-.3-148.3-2.8-8c-7.6-21.5-19.5-35.2-40-46-4.5-2.4-19.9-8.6-34.2-13.8S708.3-797.7,686-806c-92.3-34.6-153.1-56.5-163-58.6A60.018,60.018,0,0,0,493.5-863.5Z" fill="#FFD329"></path>
    <path id="face-right" d="M793-559.8c0,162.8.2,155.2-6.1,168.5a47.239,47.239,0,0,1-9.6,13.1c-6.3,6.2-8.2,7.2-65.6,35.6-32.6,16.1-71.1,35-85.7,42.1s-47.3,23.4-72.6,36.2c-40.7,20.6-46.7,23.3-50.8,23.3-3.9,0-5.3-.5-7.7-3l-3-2.9.7-171.8.6-171.8,2.4-3.7c3.6-5.6,2.4-5.1,66.4-28.8,18.1-6.7,95.1-35.1,122-45,35.8-13.1,93.3-34.4,100-37a70.893,70.893,0,0,1,8.3-2.9C792.7-708,793-641.3,793-559.8Z" fill="#FFD329"></path>
    <path id="face-left" d="M276.9-688.4c24.5,12.5,53.2,27,63.6,32.4,10.5,5.4,38.4,19.5,62,31.5,23.7,12,44.2,22.7,45.8,23.7A19.876,19.876,0,0,1,453-595c2,3.9,2,5.9,1.4,166.2-.4,89.3-.9,165.8-1.3,170l-.6,7.7L412-277.6c-22.3-14.6-50.8-33.3-63.5-41.7-12.6-8.3-32.4-21.1-44-28.5-58.7-37.7-64.4-42-69.4-52.7-5.2-11.1-5.1-5.8-5.1-163.8,0-106.6.3-146.7,1.1-146.7C231.7-711,252.3-700.8,276.9-688.4Z" fill="#EAA91F"></path>
    <path id="face-top" d="M452.5-745c46.2,21,99.1,44.9,117.5,53.2s33.6,15.2,33.8,15.3c.1.1-8.7,3.5-19.5,7.5-67.8,24.8-87.6,31.9-94.2,33.5-9.6,2.3-19,1.6-29.3-2.2C453.2-640.5,248.1-742,248-743c0-.3,20.1-7.5,44.8-16,24.6-8.4,50.8-17.5,58.2-20.2,7.4-2.6,14.4-4.6,15.5-4.4S406.3-766.1,452.5-745Z" fill="#FFD329"></path>
    <path id="Path_821" d="M493.5-863.5c-4.4,1.3-27.8,9.1-52,17.3s-69.2,23.5-100,34c-73.7,25-94.8,32.4-101.8,35.6A77.938,77.938,0,0,0,196.8-728l-2.3,7.5L194.2-567c-.2,105.3.1,155.7.8,160.4A85.953,85.953,0,0,0,205-378c8.7,14.8,17.4,22.7,42.5,38.5,17.9,11.3,53.5,34.4,103.5,67,21.7,14.2,50.9,33.1,64.7,42.2,37.5,24.4,50.1,29.7,70.8,29.7,11.8,0,21.8-1.8,34-6.1,9.6-3.5,257.8-127.1,265.3-132.2a105.3,105.3,0,0,0,24.5-23.6,85.054,85.054,0,0,0,14.1-27c5.8-17.1,5.7-14.1,5.4-175.7l-.3-148.3-2.8-8c-7.6-21.5-19.5-35.2-40-46-4.5-2.4-19.9-8.6-34.2-13.8S708.3-797.7,686-806c-92.3-34.6-153.1-56.5-163-58.6A60.018,60.018,0,0,0,493.5-863.5ZM521-830.6C526.2-829,625.5-792,710.8-760c32.6,12.3,58.9,22.7,58.5,23.1s-10.9,4.4-23.3,8.9c-12.4,4.6-37.5,13.8-55.7,20.6L657-695.2l-35.2-15.5c-19.4-8.5-44.7-19.7-56.2-25-11.5-5.2-32.4-14.5-46.5-20.7s-42.5-18.8-63.3-28c-20.7-9.1-38.2-16.6-38.9-16.6-2.7,0,.8-1.9,7.1-3.8,3.6-1.1,20-6.7,36.5-12.3C507.5-833.2,510.5-833.8,521-830.6ZM452.5-745c46.2,21,99.1,44.9,117.5,53.2s33.6,15.2,33.8,15.3c.1.1-8.7,3.5-19.5,7.5-67.8,24.8-87.6,31.9-94.2,33.5-9.6,2.3-19,1.6-29.3-2.2C453.2-640.5,248.1-742,248-743c0-.3,20.1-7.5,44.8-16,24.6-8.4,50.8-17.5,58.2-20.2,7.4-2.6,14.4-4.6,15.5-4.4S406.3-766.1,452.5-745ZM276.9-688.4c24.5,12.5,53.2,27,63.6,32.4,10.5,5.4,38.4,19.5,62,31.5,23.7,12,44.2,22.7,45.8,23.7A19.876,19.876,0,0,1,453-595c2,3.9,2,5.9,1.4,166.2-.4,89.3-.9,165.8-1.3,170l-.6,7.7L412-277.6c-22.3-14.6-50.8-33.3-63.5-41.7-12.6-8.3-32.4-21.1-44-28.5-58.7-37.7-64.4-42-69.4-52.7-5.2-11.1-5.1-5.8-5.1-163.8,0-106.6.3-146.7,1.1-146.7C231.7-711,252.3-700.8,276.9-688.4ZM793-559.8c0,162.8.2,155.2-6.1,168.5a47.239,47.239,0,0,1-9.6,13.1c-6.3,6.2-8.2,7.2-65.6,35.6-32.6,16.1-71.1,35-85.7,42.1s-47.3,23.4-72.6,36.2c-40.7,20.6-46.7,23.3-50.8,23.3-3.9,0-5.3-.5-7.7-3l-3-2.9.7-171.8.6-171.8,2.4-3.7c3.6-5.6,2.4-5.1,66.4-28.8,18.1-6.7,95.1-35.1,122-45,35.8-13.1,93.3-34.4,100-37a70.893,70.893,0,0,1,8.3-2.9C792.7-708,793-641.3,793-559.8Z" fill="#1C1815"></path>
    <path id="Path_822" d="M712.7-584c-11.8,3-21.9,12.9-26.1,25.8-9,27.3,2.3,51.5,24,51.6,5,0,7.5-.7,12.7-3.2,23.2-11.5,31.3-47.6,14.9-66.4C732.6-582.5,721-586,712.7-584Z" fill="#1C1815"></path>
    <path id="Path_823" d="M572.8-536.6c-10.8,3.9-19.1,11.7-25.6,24.3-5.2,10.2-8.2,20.1-8.2,27.5,0,9.1,3.4,13.7,10,13.8,5.2,0,7.6-2.2,11.9-11.3,4.9-10.1,8.8-14.9,14.4-17.6,8.3-4,14.9-2,20.6,6.2,1.7,2.5,3.8,4.7,4.6,5.1,5.4,2,12-1.3,14.5-7.4,1.7-4.1.8-12.9-2.1-20.5-3.1-8-12.3-17.4-19.3-19.8C587.7-538.3,578-538.4,572.8-536.6Z" fill="#1C1815"></path>
    <path id="Path_824" d="M705-468.6c-2.7,1.8-4.8,5.1-8.9,13.6-6.8,13.9-14.1,22.7-24.3,29.6-11,7.3-19.4,9.8-30.9,9.2-8.1-.5-10-1-17.2-4.6a76.851,76.851,0,0,1-16-11.1c-8.3-7.6-10.7-8.7-16.5-7.8-7,1.2-13.3,11.3-11.7,19,1.1,5.1,4,9,12.5,17,31,29.2,77.5,26.9,110.1-5.3,13.3-13.1,23.3-30.9,24.6-43.5C728.1-466.2,715.3-475.7,705-468.6Z" fill="#1C1815"></path>
  </g>
</svg>