<svg xmlns="http://www.w3.org/2000/svg" xmlns:xlink="http://www.w3.org/1999/xlink" version="1.1" x="0px" y="0px" viewBox="0 0 100 100" enable-background="new 0 0 100 100" xml:space="preserve"><rect x="0" y="0" fill="none" width="100" height="100"/><g><path d="M9.008,44.749h81.984c3.87,0,7.008-3.138,7.008-7.008V8.869c0-3.87-3.138-7.008-7.008-7.008H9.008   C5.138,1.861,2,4.998,2,8.869v28.872C2,41.611,5.138,44.749,9.008,44.749z M8.798,8.869c0-0.116,0.094-0.21,0.21-0.21h81.984   c0.116,0,0.21,0.094,0.21,0.21v28.872c0,0.116-0.094,0.21-0.21,0.21H9.008c-0.116,0-0.21-0.094-0.21-0.21V8.869z"/><path d="M24.352,28.67c0.775,0.898,1.901,1.413,3.087,1.413s2.311-0.515,3.087-1.413l5.943-6.882   c1.227-1.421,1.069-3.567-0.351-4.794c-1.421-1.228-3.567-1.07-4.794,0.351l-3.886,4.499l-3.886-4.499   c-1.227-1.421-3.373-1.579-4.794-0.351c-1.421,1.227-1.578,3.373-0.351,4.794L24.352,28.67z"/><path d="M98,62.259c0-3.87-3.138-7.008-7.008-7.008H9.008C5.138,55.251,2,58.389,2,62.259v28.872c0,3.87,3.138,7.008,7.008,7.008   h81.984c3.87,0,7.008-3.138,7.008-7.008V62.259z M91.202,91.131c0,0.116-0.094,0.21-0.21,0.21H9.008c-0.116,0-0.21-0.094-0.21-0.21   V62.259c0-0.116,0.094-0.21,0.21-0.21h81.984c0.116,0,0.21,0.094,0.21,0.21V91.131z"/><path d="M31.325,70.735l-3.886,4.499l-3.886-4.499c-1.227-1.421-3.373-1.579-4.794-0.351c-1.421,1.227-1.578,3.373-0.351,4.794   l5.943,6.883c0.775,0.898,1.901,1.413,3.087,1.413s2.311-0.515,3.087-1.413l5.943-6.882c1.227-1.421,1.069-3.567-0.351-4.794   C34.697,69.156,32.551,69.314,31.325,70.735z"/></g></svg>